<svg xmlns="http://www.w3.org/2000/svg" xmlns:xlink="http://www.w3.org/1999/xlink" viewBox="0 0 109 120"><defs><style>.cls-1{fill:url(#New_Gradient_Swatch_2);}.cls-2{fill:url(#New_Gradient_Swatch_2-2);}.cls-3{fill:url(#New_Gradient_Swatch_2-3);}</style><linearGradient id="New_Gradient_Swatch_2" y1="60.17" x2="108.92" y2="60.17" gradientUnits="userSpaceOnUse"><stop offset="0" stop-color="#9b59b6"/><stop offset="1" stop-color="#3498db"/></linearGradient><linearGradient id="New_Gradient_Swatch_2-2" x1="28.09" y1="60.17" x2="39.45" y2="60.17" xlink:href="#New_Gradient_Swatch_2"/><linearGradient id="New_Gradient_Swatch_2-3" x1="69.45" y1="60.17" x2="80.83" y2="60.17" xlink:href="#New_Gradient_Swatch_2"/><symbol id="JS_Hex" data-name="JS Hex" viewBox="0 0 108.92 120.34"><g id="Javascript"><path class="cls-1" d="M100.17,23.68l-37-21.34a17.55,17.55,0,0,0-17.5,0l-37,21.34A17.55,17.55,0,0,0,0,38.83V81.51A17.55,17.55,0,0,0,8.75,96.67l37,21.34a17.55,17.55,0,0,0,17.5,0l37-21.34a17.55,17.55,0,0,0,8.75-15.16V38.83A17.55,17.55,0,0,0,100.17,23.68Zm3.75,57.83a12.53,12.53,0,0,1-6.25,10.83l-37,21.34a12.54,12.54,0,0,1-12.5,0l-37-21.34A12.53,12.53,0,0,1,5,81.51V38.83A12.53,12.53,0,0,1,11.25,28l37-21.34a12.54,12.54,0,0,1,12.5,0L97.67,28a12.53,12.53,0,0,1,6.25,10.83Z"/><path class="cls-2" d="M38.54,78.67q-6.67-1.87-6.81-8.53v-4q0-4.25-3.65-4.25V58.5q3.65,0,3.65-4.27v-4a8.67,8.67,0,0,1,1.77-5.5,9.69,9.69,0,0,1,5-3l.91,2.65q-3.27,1.06-3.38,5.79v4.08q0,4.25-3.27,6,3.27,1.74,3.27,6v4q.11,4.73,3.38,5.78Z"/><path class="cls-3" d="M69.45,76q3.33-1.08,3.4-5.9V66.17q0-4.37,3.44-6-3.44-1.63-3.44-6V50.22q-.08-4.82-3.4-5.9l.91-2.65a9.48,9.48,0,0,1,5.12,3.13,9,9,0,0,1,1.68,5.66v3.78q0,4.25,3.67,4.25v3.37q-3.67,0-3.67,4.25v3.72a9,9,0,0,1-1.69,5.7,9.52,9.52,0,0,1-5.11,3.13Z"/></g></symbol></defs><title>Asset 2</title><g id="Layer_2" data-name="Layer 2"><g id="Content"><use width="108.92" height="120.34" xlink:href="#JS_Hex"/></g></g></svg>